<svg preserveAspectRatio="none" width="100%" height="100%" overflow="visible" style="display: block;" viewBox="0 0 16 16" fill="none" xmlns="http://www.w3.org/2000/svg">
<g id="icons8-pixel-arrow-30 1 [Vectorized]">
<path id="Vector" d="M2.12803 2.12552C2.84669 2.12164 3.56534 2.12267 4.28397 2.12859C4.2648 2.44769 4.29011 2.84047 4.27781 3.17859C4.62023 3.19478 4.99944 3.18705 5.34655 3.19108C5.32762 3.49386 5.34697 3.94631 5.34225 4.26878C5.69014 4.28298 6.05553 4.27922 6.40488 4.28067C6.40838 4.63091 6.40825 4.98117 6.40448 5.33141C6.75252 5.34555 7.11791 5.34175 7.46738 5.34317C7.47086 5.69339 7.47072 6.04366 7.46698 6.39389C7.81497 6.40806 8.18044 6.40427 8.52988 6.40567C8.53334 6.75589 8.53322 7.10616 8.52948 7.45639C8.87745 7.47058 9.24295 7.46677 9.59238 7.46816C9.59588 7.81839 9.59575 8.16866 9.59198 8.51889C9.93995 8.53306 10.3054 8.52927 10.6548 8.53066C10.6583 8.88089 10.6582 9.23116 10.6545 9.58139C11.0112 9.59537 11.3605 9.58433 11.7157 9.59433L11.7167 6.40358L13.7291 6.40441C13.8023 6.49691 13.7754 8.56794 13.7754 8.83042L13.7747 12.898C13.7746 13.1898 13.7775 13.4806 13.76 13.772C13.7578 13.8083 13.7558 13.8441 13.7598 13.8804L6.39997 13.8774C6.41413 13.6643 6.40463 13.3411 6.40445 13.1204L6.40427 11.7161C7.44016 11.7171 8.56303 11.6914 9.5907 11.7192L9.58803 10.6713C9.25339 10.6918 8.8557 10.653 8.52502 10.6698C8.53911 10.3489 8.5292 9.93147 8.52555 9.60891C8.19128 9.62969 7.79147 9.58983 7.4625 9.60764C7.47667 9.28705 7.4667 8.86864 7.46305 8.54631C7.12978 8.56748 6.72858 8.52727 6.4 8.54517C6.41409 8.22411 6.4042 7.80662 6.40055 7.48387C6.06575 7.50448 5.66642 7.46477 5.3375 7.48267C5.35159 7.16159 5.3417 6.74408 5.33805 6.42131C5.00475 6.44248 4.60348 6.40222 4.275 6.42017C4.28911 6.09856 4.27913 5.68217 4.27553 5.35886C4.13355 5.36656 3.32545 5.37359 3.22009 5.34638C3.16584 5.26156 3.18667 4.45248 3.18678 4.29567C3.06003 4.30472 2.26263 4.30959 2.15069 4.29277C2.11233 4.16631 2.12461 3.63597 2.12458 3.47856C2.12348 3.02755 2.12463 2.57653 2.12803 2.12552Z" fill="var(--fill-0, white)"/>
</g>
</svg>
