<svg preserveAspectRatio="none" width="100%" height="100%" overflow="visible" style="display: block;" viewBox="0 0 35.1201 35.6776" fill="none" xmlns="http://www.w3.org/2000/svg">
<g id="Frame">
<path id="Vector" d="M21.8894 5.84911C22.0931 5.93214 22.2673 6.07277 22.3898 6.25323C22.5124 6.43369 22.5778 6.64586 22.5779 6.86293V28.813C22.578 29.0302 22.5127 29.2425 22.3902 29.4232C22.2677 29.6038 22.0936 29.7446 21.8897 29.8278C21.6859 29.9109 21.4616 29.9326 21.2452 29.8902C21.0288 29.8478 20.8301 29.7431 20.6741 29.5895L9.52489 18.6144C9.42123 18.5125 9.339 18.3915 9.28289 18.2582C9.22678 18.125 9.1979 17.9822 9.1979 17.838C9.1979 17.6937 9.22678 17.5509 9.28289 17.4177C9.339 17.2844 9.42123 17.1634 9.52489 17.0615L20.6741 6.08644C20.8301 5.93301 21.0289 5.82856 21.2452 5.78631C21.4615 5.74407 21.6857 5.76592 21.8894 5.84911Z" fill="var(--fill-0, #E9ABCF)"/>
</g>
</svg>
