<svg preserveAspectRatio="none" width="100%" height="100%" overflow="visible" style="display: block;" viewBox="0 0 35.1201 35.6776" fill="none" xmlns="http://www.w3.org/2000/svg">
<g id="Frame">
<path id="Vector" d="M12.6737 5.84911C12.47 5.93214 12.2958 6.07277 12.1733 6.25323C12.0507 6.43369 11.9853 6.64586 11.9853 6.86293V28.813C11.9851 29.0302 12.0504 29.2425 12.1729 29.4232C12.2954 29.6038 12.4696 29.7446 12.6734 29.8278C12.8772 29.9109 13.1016 29.9326 13.3179 29.8902C13.5343 29.8478 13.7331 29.7431 13.889 29.5895L25.0382 18.6144C25.1419 18.5125 25.2241 18.3915 25.2802 18.2582C25.3363 18.125 25.3652 17.9822 25.3652 17.838C25.3652 17.6937 25.3363 17.5509 25.2802 17.4177C25.2241 17.2844 25.1419 17.1634 25.0382 17.0615L13.889 6.08644C13.733 5.93301 13.5343 5.82856 13.3179 5.78631C13.1016 5.74407 12.8774 5.76592 12.6737 5.84911Z" fill="var(--fill-0, #894671)"/>
</g>
</svg>
