<svg preserveAspectRatio="none" width="100%" height="100%" overflow="visible" style="display: block;" viewBox="0 0 34.9228 50" fill="none" xmlns="http://www.w3.org/2000/svg">
<g id="Icon container">
<path id="Vector" d="M0.000830892 0.000138482L9.97494 0C9.96067 0.777242 9.96822 1.72276 9.92381 2.48573L15.0426 2.48587L15.0351 5.04934L19.8944 5.05273L19.8816 7.52488C21.5479 7.52094 23.3007 7.49059 24.9601 7.52156C24.955 8.33143 24.9671 9.22347 24.9395 10.0267L29.8879 10.0365C29.8709 10.8676 29.8666 11.6989 29.8748 12.5301L34.9168 12.5356L34.9228 15.0636C33.2385 15.0528 31.554 15.0564 29.8697 15.0744C29.8717 15.8599 29.8584 16.7042 29.8786 17.4848L24.9469 17.4524C24.9504 18.258 24.9353 19.1558 24.9627 19.9538C23.2702 19.9711 21.5776 19.9738 19.8851 19.9616L19.8884 22.5505L15.0317 22.5591C15.0307 23.3391 15.0113 24.207 15.0328 24.9801L9.93074 24.9777C9.9448 25.3548 10.0262 27.2089 9.92249 27.4727C9.49075 27.4173 8.33635 27.4407 7.84855 27.4396L3.85018 27.4348L0 27.4216L0.000830892 0.000138482Z" fill="var(--fill-0, #F5B4C7)"/>
<path id="Vector_2" d="M0.00018976 27.4215L3.85037 27.4348L7.84874 27.4396C8.33654 27.4406 9.49094 27.4173 9.92268 27.4727C8.5053 27.5577 6.4545 27.5015 4.99812 27.4945L5.0187 41.2875C5.01973 43.9959 5.10585 47.3157 4.99556 49.9887C4.40024 49.9642 2.83398 50.0456 2.38041 49.9586C1.62936 49.9254 0.764477 49.9635 0.00476284 49.9798L0.00018976 27.4215Z" fill="var(--fill-0, #BFBEBE)"/>
<path id="Vector_3" d="M0.00018976 27.4215L3.85037 27.4348C3.40193 27.5199 2.8955 27.4955 2.435 27.4925C2.43382 29.6443 2.52534 49.623 2.38041 49.9586C1.62936 49.9254 0.764477 49.9635 0.00476284 49.9798L0.00018976 27.4215Z" fill="var(--fill-0, #969696)"/>
</g>
</svg>
