<svg preserveAspectRatio="none" width="100%" height="100%" overflow="visible" style="display: block;" viewBox="0 0 23.5625 21.7484" fill="none" xmlns="http://www.w3.org/2000/svg">
<path id="Vector" d="M23.5625 10.8734C23.5628 13.7325 22.4371 16.4767 20.4291 18.512C18.4212 20.5473 15.6925 21.71 12.8336 21.7484H12.6875C9.91012 21.7553 7.23673 20.6925 5.22227 18.7804C5.13576 18.6986 5.06622 18.6005 5.01761 18.4918C4.969 18.3832 4.94227 18.2659 4.93896 18.1469C4.93565 18.0279 4.95581 17.9094 4.9983 17.7982C5.04078 17.6869 5.10476 17.5852 5.18658 17.4986C5.2684 17.4121 5.36646 17.3426 5.47515 17.294C5.58385 17.2454 5.70106 17.2187 5.82008 17.2153C5.9391 17.212 6.05762 17.2322 6.16885 17.2747C6.28008 17.3172 6.38185 17.3811 6.46836 17.463C7.76407 18.6849 9.39111 19.498 11.1462 19.8006C12.9013 20.1033 14.7067 19.882 16.3368 19.1646C17.967 18.4471 19.3495 17.2652 20.3119 15.7665C21.2742 14.2679 21.7736 12.5189 21.7477 10.7381C21.7218 8.95724 21.1717 7.22352 20.1662 5.75349C19.1607 4.28346 17.7443 3.1423 16.094 2.47257C14.4437 1.80283 12.6326 1.63421 10.8871 1.98778C9.14149 2.34134 7.53879 3.20141 6.27918 4.46054C6.26993 4.47055 6.26009 4.48001 6.24973 4.48886L3.23871 7.24839H6.34375C6.5841 7.24839 6.81461 7.34387 6.98457 7.51383C7.15452 7.68378 7.25 7.91429 7.25 8.15464C7.25 8.39499 7.15452 8.6255 6.98457 8.79546C6.81461 8.96541 6.5841 9.06089 6.34375 9.06089H0.90625C0.665898 9.06089 0.435389 8.96541 0.265434 8.79546C0.0954796 8.6255 0 8.39499 0 8.15464V2.71714C0 2.47679 0.0954796 2.24628 0.265434 2.07633C0.435389 1.90637 0.665898 1.81089 0.90625 1.81089C1.1466 1.81089 1.37711 1.90637 1.54707 2.07633C1.71702 2.24628 1.8125 2.47679 1.8125 2.71714V6.09292L5.0127 3.17027C6.53517 1.6537 8.47283 0.622194 10.5811 0.205957C12.6893 -0.210279 14.8736 0.00741541 16.8582 0.83156C18.8428 1.65571 20.5388 3.04935 21.732 4.83657C22.9252 6.62379 23.5622 8.72446 23.5625 10.8734Z" fill="var(--fill-0, white)"/>
</svg>
